<?xml version="1.0" encoding="UTF-8"?>
<svg xmlns="http://www.w3.org/2000/svg" version="1.1" viewBox="0 0 24 24">
  <defs>
    <style>
      .cls-1 {
        fill: #fff;
        fill-rule: evenodd;
      }
    </style>
  </defs>
  <!-- Generator: Adobe Illustrator 28.6.0, SVG Export Plug-In . SVG Version: 1.2.0 Build 709)  -->
  <g>
    <g id="Capa_1">
      <path class="cls-1" d="M12,2C6.5,2,2.1,6.5,2.1,12s2.9,8.1,6.8,9.5c.5,0,.7-.2.7-.5s0-.9,0-1.7c-2.8.6-3.4-1.3-3.4-1.3-.5-1.2-1.1-1.5-1.1-1.5-.9-.6,0-.6,0-.6,1,0,1.5,1,1.5,1,.9,1.5,2.3,1.1,2.9.8,0-.6.4-1.1.6-1.3-2.2-.3-4.5-1.1-4.5-4.9s.4-2,1-2.7c-.1-.3-.4-1.3,0-2.6,0,0,.8-.3,2.7,1,.8-.2,1.7-.3,2.5-.3.8,0,1.7.1,2.5.3,1.9-1.3,2.7-1,2.7-1,.5,1.4.2,2.4,0,2.6.6.7,1,1.6,1,2.7,0,3.8-2.3,4.7-4.6,4.9.4.3.7.9.7,1.8,0,1.3,0,2.4,0,2.7s.2.6.7.5c4-1.3,6.8-5.1,6.8-9.5S17.5,2,12,2Z"/>
    </g>
  </g>
</svg>